<svg width="24" height="24" viewBox="0 0 24 24" fill="none" xmlns="http://www.w3.org/2000/svg">
<path fill-rule="evenodd" clip-rule="evenodd" d="M3 24H22V1H21V23H3V24ZM20 0H2V22H20V0ZM19 1H3V21H19V1ZM17 17H5V18H17V17ZM17 14H5V15H17V14ZM17 11H5V12H17V11ZM9.652 7.137L10.6 7.437C10.455 7.966 10.213 8.359 9.875 8.615C9.537 8.872 9.108 9 8.588 9C7.945 9 7.417 8.78 7.003 8.341C6.589 7.902 6.382 7.301 6.382 6.539C6.382 5.733 6.59 5.107 7.006 4.661C7.422 4.215 7.969 3.992 8.648 3.992C9.24 3.992 9.721 4.167 10.091 4.517C10.312 4.724 10.477 5.022 10.587 5.409L9.619 5.64C9.562 5.389 9.442 5.191 9.261 5.046C9.079 4.9 8.858 4.828 8.598 4.828C8.239 4.828 7.948 4.957 7.724 5.214C7.501 5.472 7.389 5.889 7.389 6.466C7.389 7.079 7.499 7.515 7.72 7.774C7.94 8.034 8.226 8.164 8.578 8.164C8.838 8.164 9.062 8.082 9.249 7.916C9.436 7.751 9.571 7.491 9.652 7.137ZM12.675 8.917L10.944 4.075H12.004L13.23 7.659L14.416 4.075H15.453L13.719 8.917H12.675Z" fill="#FCFCFC"/>
</svg>
