<svg width="71" height="27" viewBox="0 0 71 27" fill="none" xmlns="http://www.w3.org/2000/svg">
<path d="M13.716 1.608C12.78 1.608 12.132 1.692 11.772 1.86C11.316 2.004 11.004 2.232 10.836 2.544C10.692 2.856 10.62 3.252 10.62 3.732V18.852C10.62 21.228 10.152 23.04 9.216 24.288C8.352 25.512 7.14 26.124 5.58 26.124C4.5 26.124 3.516 25.92 2.628 25.512C1.5 24.936 0.936 24.144 0.936 23.136C0.936 22.584 1.104 22.14 1.44 21.804C1.776 21.396 2.172 21.192 2.628 21.192C3.732 21.192 4.296 21.708 4.32 22.74C4.32 22.932 4.32 23.112 4.32 23.28C4.344 23.448 4.368 23.592 4.392 23.712C4.416 24.12 4.488 24.336 4.608 24.36C4.872 24.552 5.172 24.648 5.508 24.648C6.036 24.648 6.468 24.552 6.804 24.36C7.164 24.168 7.464 23.832 7.704 23.352C8.112 22.464 8.316 21.228 8.316 19.644V3.732C8.316 2.94 8.124 2.4 7.74 2.112C7.188 1.776 6.336 1.608 5.184 1.608V0.455998H13.716V1.608ZM42.0998 1.608C41.0198 1.608 40.2398 1.776 39.7598 2.112C39.4238 2.376 39.0758 2.976 38.7158 3.912L30.7958 25.98H29.8598L21.7958 3.516C21.6278 2.868 21.3638 2.424 21.0038 2.184C20.4758 1.8 19.6238 1.608 18.4478 1.608V0.419999H27.3398V1.608C25.5398 1.608 24.5318 1.788 24.3158 2.148C24.0518 2.364 23.9918 2.664 24.1358 3.048L30.8318 21.696L37.2398 3.588C37.5038 2.94 37.5038 2.484 37.2398 2.22C36.9758 1.812 35.9918 1.608 34.2878 1.608V0.419999H42.0998V1.608ZM70.4146 1.608C69.3346 1.608 68.5546 1.776 68.0746 2.112C67.7386 2.376 67.3906 2.976 67.0306 3.912L59.1106 25.98H58.1746L50.1106 3.516C49.9426 2.868 49.6786 2.424 49.3186 2.184C48.7906 1.8 47.9386 1.608 46.7626 1.608V0.419999H55.6546V1.608C53.8546 1.608 52.8466 1.788 52.6306 2.148C52.3666 2.364 52.3066 2.664 52.4506 3.048L59.1466 21.696L65.5546 3.588C65.8186 2.94 65.8186 2.484 65.5546 2.22C65.2906 1.812 64.3066 1.608 62.6026 1.608V0.419999H70.4146V1.608Z" fill="#14DA86"/>
</svg>
